# xmcd CD database file
#
# Track frame offsets:
#	150
#	12496
#	24944
#	38260
#	50541
#	62044
#	73661
#	85663
#	97003
#	110641
#	125299
#	138314
#	152761
#	164605
#	177379
#	189914
#	203328
#	216199
#	226223
#	236588
#
# Disc length: 3304 seconds
#
# Revision: 2
# Processed by: cddbd v1.4PL0 Copyright (c) Steve Scherf et al.
# Submitted via: CDex 1.40Beta9
#
DISCID=060ce614
DTITLE=BB King - BB's Blues
DYEAR=2001
DGENRE=Blues
TTITLE0=Sugar Mama
TTITLE1=Why I sing the Blues
TTITLE2=Woke up this morning (My baby was gone)
TTITLE3=Please hurry home
TTITLE4=Did you ever love a woman
TTITLE5=Early every morning
TTITLE6=Get out of here
TTITLE7=Mean Ole Trisco
TTITLE8=Sneakin' Around
TTITLE9=Ain't that just like a woman
TTITLE10=Bad Luck
TTITLE11=Sweet little angel
TTITLE12=Bim Bam
TTITLE13=What can I do
TTITLE14=Boogie Woogie Woman
TTITLE15=Rock me baby
TTITLE16=Please love me
TTITLE17=My Reward
TTITLE18=Bad luck soul
TTITLE19=38th Street Blues
EXTD=YEAR: 2001 ID3G: 0
EXTT0=
EXTT1=
EXTT2=
EXTT3=
EXTT4=
EXTT5=
EXTT6=
EXTT7=
EXTT8=
EXTT9=
EXTT10=
EXTT11=
EXTT12=
EXTT13=
EXTT14=
EXTT15=
EXTT16=
EXTT17=
EXTT18=
EXTT19=
PLAYORDER=
